<svg xmlns="http://www.w3.org/2000/svg" width="385" height="283" viewBox="0 0 385 283">
  <g id="about_" data-name="about " transform="translate(-8558 -3262)">
    <rect id="Rectangle_482" data-name="Rectangle 482" width="385" height="283" transform="translate(8558 3262)" fill="#3e3c3c"/>
    <g id="_1761_Converted_" data-name="1761 [Converted]" transform="translate(8318.809 3218.145)">
      <g id="XMLID_6820_" transform="translate(437.357 94.61)">
        <g id="XMLID_6925_" transform="translate(0 0)">
          <g id="XMLID_6926_">
            <path id="XMLID_6930_" d="M594.238,135.35,569.293,149.74a45.257,45.257,0,0,0-20.329,24.888l-8.956,26.845a59.92,59.92,0,0,1-27.029,33.015l-20.26,11.569L413,199.7l20.629-11.949a59.964,59.964,0,0,0,26.615-32.382l9.463-27.559a45.309,45.309,0,0,1,20.053-24.439L513.853,89.35Z" transform="translate(-411.538 -88.487)" fill="#39a1ff"/>
            <path id="XMLID_6927_" d="M492.9,247.011,411.73,199.8l21.722-12.594a59.2,59.2,0,0,0,26.292-31.991l9.462-27.559a46.053,46.053,0,0,1,20.387-24.83L514.056,88.6l81.87,46.852-26.062,15.023a44.451,44.451,0,0,0-20,24.485L540.913,201.8a60.6,60.6,0,0,1-27.363,33.418Zm-78.244-47.2L492.9,245.319l19.892-11.362a59.074,59.074,0,0,0,26.7-32.612l8.956-26.845A45.977,45.977,0,0,1,569.1,149.208l23.841-13.745L514.033,90.3,490.32,104.118a44.57,44.57,0,0,0-19.731,24.036l-9.462,27.559A60.712,60.712,0,0,1,434.189,188.5Z" transform="translate(-411.73 -88.6)" fill="#150035"/>
          </g>
        </g>
        <g id="XMLID_6821_" transform="translate(20.847 6.596)">
          <g id="XMLID_6902_" transform="translate(46.329 123.966)">
            <g id="XMLID_6907_">
              <g id="XMLID_6916_">
                <g id="XMLID_6923_" transform="translate(1.883 1.002)">
                  <path id="XMLID_6924_" d="M474.195,203.869a12.118,12.118,0,0,1,10.924.7c2.9,1.934,2.728,4.766-.4,6.308a12.118,12.118,0,0,1-10.924-.7C470.879,208.243,471.064,205.411,474.195,203.869Z" transform="translate(-471.722 -202.889)" fill="#39a1ff"/>
                </g>
                <g id="XMLID_6921_">
                  <path id="XMLID_6922_" d="M472.554,203a12.118,12.118,0,0,1,10.924.7c2.9,1.934,2.728,4.766-.4,6.308a12.118,12.118,0,0,1-10.924-.7C469.25,207.373,469.423,204.553,472.554,203Z" transform="translate(-470.086 -202.019)" fill="#fff"/>
                </g>
                <g id="XMLID_6917_" transform="translate(1.023 0.298)">
                  <path id="XMLID_6918_" d="M473.352,210.822a4.5,4.5,0,0,1-2.371-3.9c.092-1.439,1.105-2.705,2.855-3.569h0a13.207,13.207,0,0,1,11.938.771,4.5,4.5,0,0,1,2.371,3.9c-.092,1.439-1.105,2.705-2.855,3.569a11.676,11.676,0,0,1-5.111,1.071A12.692,12.692,0,0,1,473.352,210.822Zm.932-6.573h0a3,3,0,0,0-.368,5.733,12.107,12.107,0,0,0,10.936.7,3,3,0,0,0,.368-5.733,11.646,11.646,0,0,0-6.251-1.692A10.639,10.639,0,0,0,474.285,204.249Z" transform="translate(-470.974 -202.277)" fill="#150035"/>
                </g>
              </g>
              <g id="XMLID_6912_" transform="translate(4.712 2.636)">
                <g id="XMLID_6913_">
                  <g id="XMLID_6914_">
                    <path id="XMLID_6915_" d="M479.9,204.794l.61,2.371a.507.507,0,0,1-.138.507,1.715,1.715,0,0,1-1.45.311l-4.041-.714c-.484-.092-.794-.38-.679-.656h0c.115-.276.6-.437,1.094-.345l3.327.587-.506-1.98c-.081-.288.265-.541.76-.564h0C479.36,204.287,479.832,204.506,479.9,204.794Z" transform="translate(-474.179 -204.309)" fill="#39a1ff"/>
                  </g>
                </g>
              </g>
              <g id="XMLID_6908_" transform="translate(5.817 3.373)">
                <g id="XMLID_6909_">
                  <g id="XMLID_6910_">
                    <path id="XMLID_6911_" d="M480.861,205.434l.61,2.371a.507.507,0,0,1-.138.507,1.715,1.715,0,0,1-1.45.311l-4.041-.714c-.483-.092-.794-.38-.679-.656h0c.115-.276.6-.437,1.094-.345l3.327.587-.507-1.98c-.081-.288.265-.541.76-.564h0C480.32,204.927,480.781,205.146,480.861,205.434Z" transform="translate(-475.139 -204.949)" fill="#150035"/>
                  </g>
                </g>
              </g>
            </g>
            <g id="XMLID_6905_" transform="translate(18.435 3.133)">
              <path id="XMLID_6906_" d="M487.447,209.586c.541-1.025.886-2.682-.506-4.846l-.84.541a3.644,3.644,0,0,1,.46,3.833Z" transform="translate(-486.1 -204.74)" fill="#150035"/>
            </g>
            <g id="XMLID_6903_" transform="translate(16.789 8.232)">
              <path id="XMLID_6904_" d="M485.1,211.323a6.564,6.564,0,0,0,1.945-1.5l-.76-.656a5.2,5.2,0,0,1-1.612,1.243Z" transform="translate(-484.67 -209.17)" fill="#150035"/>
            </g>
          </g>
          <g id="XMLID_6897_" transform="translate(74.422 8.864)">
            <path id="XMLID_6901_" d="M559.37,141.335l-63.59-36.526,3.546-2.049,63.6,36.515Z" transform="translate(-494.295 -101.92)" fill="#fff"/>
            <path id="XMLID_6898_" d="M559.565,142.3l-.368-.207L494.49,104.931l5.03-2.9.368.207L564.6,139.4Zm-62.117-37.378,62.117,35.674,2.084-1.2-62.117-35.674Z" transform="translate(-494.49 -102.03)" fill="#150035"/>
          </g>
          <g id="XMLID_6892_" transform="translate(73.294)">
            <path id="XMLID_6896_" d="M566.461,138.411,494.79,97.119l3.546-2.049,71.683,41.292Z" transform="translate(-493.317 -94.218)" fill="#fff"/>
            <path id="XMLID_6893_" d="M566.655,139.375,493.51,97.231l5.031-2.9.368.207,72.776,41.925Zm-70.2-42.144,70.2,40.44,2.084-1.2-70.2-40.44Z" transform="translate(-493.51 -94.33)" fill="#150035"/>
          </g>
          <g id="XMLID_6887_" transform="translate(81.099 20.997)">
            <path id="XMLID_6891_" d="M551.542,143.919l-49.972-28.56,3.557-2.049,49.96,28.549Z" transform="translate(-500.096 -112.458)" fill="#fff"/>
            <path id="XMLID_6888_" d="M551.735,144.871l-51.445-29.4,5.031-2.9,51.445,29.4Zm-48.487-29.412,48.487,27.708,2.072-1.2-48.487-27.708Z" transform="translate(-500.29 -112.57)" fill="#150035"/>
          </g>
          <g id="XMLID_6882_" transform="translate(0 97.02)">
            <path id="XMLID_6886_" d="M470.327,203.7l-39.2-22.3,3.546-2.049,39.208,22.3Z" transform="translate(-429.645 -178.498)" fill="#fff"/>
            <path id="XMLID_6883_" d="M470.533,204.661l-.368-.207L429.84,181.511l5.031-2.9.368.207,40.325,22.943ZM432.8,181.511l37.723,21.458,2.072-1.2-37.723-21.458Z" transform="translate(-429.84 -178.61)" fill="#150035"/>
          </g>
          <g id="XMLID_6877_" transform="translate(60.735 24.911)">
            <path id="XMLID_6881_" d="M485.987,116.78c-.84.875-1.646,1.773-2.417,2.705l58.41,33.3q1.174-1.4,2.452-2.694Z" transform="translate(-482.453 -115.848)" fill="#fff"/>
            <path id="XMLID_6878_" d="M542.3,153.855l-59.7-34.04.552-.679c.737-.909,1.566-1.83,2.452-2.751l.4-.414,59.78,34.086-.679.679c-.806.817-1.623,1.7-2.406,2.648ZM484.845,119.4l57.12,32.566c.472-.541.944-1.071,1.427-1.577l-57.12-32.566C485.766,118.353,485.294,118.882,484.845,119.4Z" transform="translate(-482.6 -115.97)" fill="#150035"/>
          </g>
          <g id="XMLID_6872_" transform="translate(56.418 31.956)">
            <path id="XMLID_6876_" d="M479.71,126,538,159.234c.576-1.036,1.2-2.049,1.853-3.028L481.517,122.95C480.884,123.94,480.274,124.965,479.71,126Z" transform="translate(-478.72 -121.96)" fill="#fff"/>
            <path id="XMLID_6873_" d="M538.422,160.378,478.85,126.418l.345-.633c.564-1.048,1.186-2.084,1.842-3.108l.38-.587,59.63,33.994-.437.656c-.656.99-1.266,1.992-1.83,2.982Zm-57.581-34.523,57.028,32.509c.345-.587.7-1.186,1.082-1.773L481.9,124.07C481.532,124.657,481.175,125.256,480.842,125.854Z" transform="translate(-478.85 -122.09)" fill="#150035"/>
          </g>
          <g id="XMLID_6867_" transform="translate(47.612 17.302)">
            <path id="XMLID_6871_" d="M474.578,110.17c-.84.875-1.646,1.773-2.417,2.705l3.338,2.049q1.174-1.4,2.452-2.694Z" transform="translate(-471.055 -109.238)" fill="#fff"/>
            <path id="XMLID_6868_" d="M475.793,116.014l-4.593-2.82.529-.656c.737-.9,1.566-1.83,2.452-2.751l.414-.426,4.662,2.866-.656.656c-.806.806-1.612,1.7-2.406,2.648Zm-2.383-3.189,2.072,1.278c.472-.553.955-1.082,1.439-1.589l-2.084-1.278C474.343,111.766,473.859,112.3,473.41,112.825Z" transform="translate(-471.2 -109.36)" fill="#150035"/>
          </g>
          <g id="XMLID_6862_" transform="translate(43.295 24.324)">
            <path id="XMLID_6866_" d="M468.3,119.4l3.223,1.98c.576-1.036,1.2-2.049,1.853-3.028l-3.269-2C469.474,117.34,468.864,118.353,468.3,119.4Z" transform="translate(-467.322 -115.325)" fill="#fff"/>
            <path id="XMLID_6863_" d="M471.916,122.54l-4.466-2.751.334-.61c.564-1.036,1.186-2.084,1.842-3.108l.391-.61,4.524,2.786-.426.633c-.645.978-1.266,1.98-1.83,2.981Zm-2.5-3.269,1.98,1.22c.345-.6.714-1.186,1.082-1.773l-2-1.232C470.109,118.073,469.752,118.672,469.418,119.27Z" transform="translate(-467.45 -115.46)" fill="#150035"/>
          </g>
          <g id="XMLID_6857_" transform="translate(49.408 50.708)">
            <path id="XMLID_6861_" d="M473.54,142.75l57.7,33.1,1.151-3.442L474.726,139.32Z" transform="translate(-472.642 -138.238)" fill="#fff"/>
            <path id="XMLID_6858_" d="M531.768,177.07,472.76,143.226l1.658-4.846L533.38,172.2Zm-57.213-34.523,56.384,32.348.668-2.015-56.372-32.336Z" transform="translate(-472.76 -138.38)" fill="#150035"/>
          </g>
          <g id="XMLID_6852_" transform="translate(46.749 59.02)">
            <path id="XMLID_6856_" d="M471.23,149.97l57.7,33.1,1.151-3.442L472.4,146.54Z" transform="translate(-470.332 -145.458)" fill="#fff"/>
            <path id="XMLID_6853_" d="M529.458,184.29,470.45,150.446l1.658-4.846,58.962,33.821Zm-57.213-34.512,56.384,32.348.679-2.015-56.372-32.336Z" transform="translate(-470.45 -145.6)" fill="#150035"/>
          </g>
          <g id="XMLID_6847_" transform="translate(43.836 66.848)">
            <path id="XMLID_6851_" d="M468.7,156.759l57.7,33.1,1.151-3.43L469.874,153.34Z" transform="translate(-467.802 -152.258)" fill="#fff"/>
            <path id="XMLID_6848_" d="M526.928,191.09,467.92,157.246l1.658-4.846,58.962,33.821Zm-57.212-34.523L526.1,188.915l.668-2.015L470.4,154.564Z" transform="translate(-467.92 -152.4)" fill="#150035"/>
          </g>
          <g id="XMLID_6842_" transform="translate(36.998 43.41)">
            <path id="XMLID_6846_" d="M462.75,136.429l3.43,2.13,1.151-3.43-3.4-2.118Z" transform="translate(-461.864 -131.893)" fill="#fff"/>
            <path id="XMLID_6843_" d="M466.7,139.833l-4.72-2.935,1.669-4.858,4.674,2.912Zm-2.935-3.569,2.13,1.324.668-2-2.118-1.324Z" transform="translate(-461.98 -132.04)" fill="#150035"/>
          </g>
          <g id="XMLID_6837_" transform="translate(34.339 51.721)">
            <path id="XMLID_6841_" d="M460.44,143.66l3.43,2.13,1.151-3.442-3.4-2.118Z" transform="translate(-459.554 -139.113)" fill="#fff"/>
            <path id="XMLID_6838_" d="M464.39,147.053l-4.72-2.935,1.669-4.858,4.674,2.912Zm-2.947-3.569,2.13,1.324.668-2-2.118-1.324Z" transform="translate(-459.67 -139.26)" fill="#150035"/>
          </g>
          <g id="XMLID_6832_" transform="translate(31.415 59.538)">
            <path id="XMLID_6836_" d="M457.91,150.449l3.419,2.13,1.151-3.442-3.4-2.107Z" transform="translate(-457.012 -145.902)" fill="#fff"/>
            <path id="XMLID_6833_" d="M461.85,153.843l-4.72-2.935,1.669-4.858,4.674,2.912Zm-2.935-3.557,2.13,1.324.668-2-2.118-1.324Z" transform="translate(-457.13 -146.05)" fill="#150035"/>
          </g>
          <g id="XMLID_6830_" transform="translate(17.682 77.758)">
            <rect id="XMLID_6831_" width="1.473" height="92.231" transform="matrix(0.505, -0.863, 0.863, 0.505, 0, 1.272)" fill="#150035"/>
          </g>
          <g id="XMLID_6828_" transform="translate(17.266 83.915)">
            <rect id="XMLID_6829_" width="1.473" height="72.914" transform="translate(0 1.273) rotate(-59.794)" fill="#150035"/>
          </g>
          <g id="XMLID_6826_" transform="translate(36.588 32.326)">
            <rect id="XMLID_6827_" width="1.473" height="92.231" transform="matrix(0.505, -0.863, 0.863, 0.505, 0, 1.272)" fill="#150035"/>
          </g>
          <g id="XMLID_6824_" transform="translate(13.832 87.157)">
            <rect id="XMLID_6825_" width="1.473" height="72.914" transform="translate(0 1.273) rotate(-59.794)" fill="#150035"/>
          </g>
          <g id="XMLID_6822_" transform="translate(29.075 68.388)">
            <rect id="XMLID_6823_" width="1.473" height="72.914" transform="translate(0 1.273) rotate(-59.794)" fill="#150035"/>
          </g>
        </g>
      </g>
      <g id="XMLID_6777_" transform="translate(427.469 82.805)">
        <g id="XMLID_6786_" transform="translate(5.633 12.466)">
          <g id="XMLID_6793_">
            <g id="XMLID_6815_">
              <path id="XMLID_6819_" d="M435.41,171.976l7.1-3.154a.562.562,0,0,0,.311-.691l-25.648-77.07c-.391-.771-1.416-1.3-3.108-1.22a6.932,6.932,0,0,0-3.592,1.2c-1.393.944-1.911,1.968-1.773,2.82l25.947,77.8A.572.572,0,0,0,435.41,171.976Z" transform="translate(-407.936 -89.074)" fill="#150035"/>
              <path id="XMLID_6816_" d="M435.277,172.859a1.221,1.221,0,0,1-.53-.115,1.33,1.33,0,0,1-.714-.783l-25.97-77.91c-.2-1.22.564-2.521,2.084-3.546a7.785,7.785,0,0,1,3.971-1.324c1.842-.081,3.235.507,3.8,1.635L443.6,167.978a1.3,1.3,0,0,1-.7,1.6l-7.1,3.154A.989.989,0,0,1,435.277,172.859ZM409.526,93.774l25.867,77.542,6.78-3.016-25.6-76.909c-.242-.472-1.14-.783-2.371-.725a6.329,6.329,0,0,0-3.223,1.071C410,92.4,409.457,93.152,409.526,93.774Z" transform="translate(-408.034 -89.174)" fill="#150035"/>
            </g>
            <g id="XMLID_6810_" transform="translate(0.817 2.463)">
              <path id="XMLID_6814_" d="M436.12,174.116l7.1-3.154a.562.562,0,0,0,.311-.691L417.885,93.2c-.391-.771-1.416-1.3-3.108-1.22a6.932,6.932,0,0,0-3.592,1.2c-1.393.944-1.911,1.968-1.773,2.82l25.947,77.8A.556.556,0,0,0,436.12,174.116Z" transform="translate(-408.646 -91.214)" fill="#39a1ff"/>
              <path id="XMLID_6811_" d="M435.987,175a1.221,1.221,0,0,1-.53-.115,1.33,1.33,0,0,1-.714-.783l-25.97-77.91c-.2-1.232.564-2.521,2.084-3.546a7.785,7.785,0,0,1,3.971-1.324c1.842-.081,3.235.507,3.8,1.635l25.682,77.162a1.308,1.308,0,0,1-.7,1.6l-7.1,3.154A1.045,1.045,0,0,1,435.987,175ZM410.224,95.926l25.866,77.542,6.78-3.016-25.6-76.92c-.242-.472-1.14-.783-2.371-.725a6.33,6.33,0,0,0-3.223,1.071C410.708,94.544,410.155,95.3,410.224,95.926Z" transform="translate(-408.744 -91.314)" fill="#150035"/>
            </g>
            <g id="XMLID_6805_" transform="translate(3.419 10.312)">
              <path id="XMLID_6809_" d="M438.38,180.936l7.1-3.154a.562.562,0,0,0,.311-.691l-25.648-77.07c-.391-.771-1.416-1.3-3.108-1.22a6.932,6.932,0,0,0-3.592,1.2c-1.393.944-1.911,1.968-1.773,2.82l25.947,77.8A.564.564,0,0,0,438.38,180.936Z" transform="translate(-410.906 -98.032)" fill="#fff"/>
              <path id="XMLID_6806_" d="M438.247,181.819a1.22,1.22,0,0,1-.529-.115,1.33,1.33,0,0,1-.714-.783l-25.97-77.91c-.2-1.232.564-2.521,2.084-3.546a7.785,7.785,0,0,1,3.972-1.324c1.842-.092,3.235.507,3.8,1.635l25.682,77.162a1.308,1.308,0,0,1-.7,1.6l-7.1,3.154A.989.989,0,0,1,438.247,181.819ZM412.5,102.746l25.867,77.542,6.792-3.016-25.6-76.92c-.242-.472-1.14-.783-2.371-.725a6.365,6.365,0,0,0-3.223,1.071C412.968,101.364,412.427,102.124,412.5,102.746Z" transform="translate(-411.004 -98.132)" fill="#150035"/>
            </g>
            <g id="XMLID_6800_" transform="translate(29.385 88.153)">
              <path id="XMLID_6804_" d="M442.926,168.3l-.115-.322c-.207-.978-1.335-1.681-3.292-1.577a6.959,6.959,0,0,0-3.442,1.14c-1.439.944-1.98,1.992-1.865,2.855h0a1.625,1.625,0,0,0,.161.507,7.456,7.456,0,0,0,4.236,4.455l3.074-.76C441.683,174.586,443.847,170.845,442.926,168.3Z" transform="translate(-433.464 -165.655)" fill="#39a1ff"/>
              <path id="XMLID_6801_" d="M438.66,176.214l-.207-.081a8.179,8.179,0,0,1-4.662-4.892,2.2,2.2,0,0,1-.207-.656c-.173-1.243.622-2.544,2.187-3.569a7.727,7.727,0,0,1,3.81-1.255c2.625-.127,3.81,1.025,4.052,2.164l.081.23c1.025,2.832-1.209,6.734-1.3,6.907l-.161.276Zm1.312-9a3.131,3.131,0,0,0-.322.011,6.27,6.27,0,0,0-3.085,1.025c-1.048.691-1.623,1.485-1.531,2.13a.927.927,0,0,0,.081.253,6.949,6.949,0,0,0,3.638,4.041l2.533-.622c.6-1.151,1.646-3.73,1.048-5.4l-.115-.334C442.056,167.6,441.192,167.212,439.972,167.212Z" transform="translate(-433.56 -165.752)" fill="#150035"/>
            </g>
            <path id="XMLID_6799_" d="M437.023,170.267a7.076,7.076,0,0,1,3.442-1.14,4.078,4.078,0,0,1,2.521.53,4.039,4.039,0,0,0-.23-1.5l-.115-.322c-.207-.978-1.335-1.681-3.292-1.577a6.96,6.96,0,0,0-3.442,1.14c-1.439.944-1.98,1.992-1.865,2.855h0a1.624,1.624,0,0,0,.161.507,8.749,8.749,0,0,0,.967,1.842A3.757,3.757,0,0,1,437.023,170.267Z" transform="translate(-404.105 -77.523)" fill="#150035"/>
            <g id="XMLID_6794_" transform="translate(33.69 95.34)">
              <path id="XMLID_6798_" d="M441.188,178.557l-.2-3.143a5.641,5.641,0,0,1,.161-1.865c.115-.4-.138-.76-.691-.875a2.6,2.6,0,0,0-2.256.76c-.391.437-.357.9.023,1.14a2.668,2.668,0,0,1,.863,1.117l1.416,3.039A.357.357,0,0,0,441.188,178.557Z" transform="translate(-437.205 -171.897)" fill="#fff"/>
              <path id="XMLID_6795_" d="M440.926,179.771a1.064,1.064,0,0,1-.979-.633l-1.416-3.039a1.872,1.872,0,0,0-.6-.817,1.342,1.342,0,0,1-.622-.955,1.641,1.641,0,0,1,.449-1.289,3.342,3.342,0,0,1,2.959-.99,1.58,1.58,0,0,1,1.117.725,1.339,1.339,0,0,1,.138,1.071,5.055,5.055,0,0,0-.138,1.623l.2,3.143a1.082,1.082,0,0,1-.817,1.128A1.3,1.3,0,0,1,440.926,179.771Zm-2.141-5.675a3.329,3.329,0,0,1,1.059,1.381l.576,1.232-.069-1.151a6.325,6.325,0,0,1,.173-2.038.534.534,0,0,0-.1-.035,1.911,1.911,0,0,0-1.566.518C438.82,174.038,438.808,174.073,438.785,174.1Z" transform="translate(-437.3 -171.995)" fill="#150035"/>
            </g>
          </g>
          <g id="XMLID_6791_" transform="translate(1.987 1.78)">
            <path id="XMLID_6792_" d="M443.121,185.667c-1.807-1.151-3.246-4.662-3.315-4.812L409.76,91.077l1.071-.357,30.022,89.744c.368.886,1.612,3.453,2.855,4.259Z" transform="translate(-409.76 -90.72)" fill="#150035"/>
          </g>
          <g id="XMLID_6789_" transform="translate(2.099 1.994)">
            <rect id="XMLID_6790_" width="1.128" height="2.348" transform="translate(0 0.351) rotate(-18.131)" fill="#39a1ff"/>
          </g>
          <g id="XMLID_6787_" transform="translate(31.462 89.837)">
            <rect id="XMLID_6788_" width="1.128" height="2.325" transform="translate(0 0.388) rotate(-20.133)" fill="#39a1ff"/>
          </g>
        </g>
        <g id="XMLID_6784_" transform="translate(1.471 7.765)">
          <path id="XMLID_6785_" d="M419.742,141.612,404.869,96.878a8.275,8.275,0,0,1,1.589-8.185,13.221,13.221,0,0,1,6.124-3.6l.322,1.082a12.207,12.207,0,0,0-5.618,3.281,7.141,7.141,0,0,0-1.347,7.068l14.873,44.734Z" transform="translate(-404.417 -85.09)" fill="#150035"/>
        </g>
        <g id="XMLID_6782_" transform="translate(18.05 67.678)">
          <rect id="XMLID_6783_" width="1.128" height="19.466" transform="matrix(0.949, -0.316, 0.316, 0.949, 0, 0.356)" fill="#150035"/>
        </g>
        <g id="XMLID_6780_" transform="translate(0 3.54)">
          <path id="XMLID_6781_" d="M404.1,87.809l-.955-.61a13.715,13.715,0,0,1,11.35-5.779v1.128A12.8,12.8,0,0,0,404.1,87.809Z" transform="translate(-403.14 -81.42)" fill="#150035"/>
        </g>
        <g id="XMLID_6778_" transform="translate(4.869)">
          <path id="XMLID_6779_" d="M407.658,79.962l-.288-1.094c.184-.046,4.466-1.163,7.9.012l-.368,1.071C411.8,78.88,407.7,79.951,407.658,79.962Z" transform="translate(-407.37 -78.345)" fill="#150035"/>
        </g>
      </g>
      <g id="XMLID_24320_" transform="translate(253.9 172.666)">
        <g id="XMLID_24340_">
          <g id="XMLID_24424_">
            <g id="XMLID_24501_" transform="translate(0 6.389)">
              <g id="XMLID_24506_" transform="translate(0.773 0.699)">
                <path id="XMLID_24507_" d="M255.193,212.9a15.1,15.1,0,0,0,5.123,4.524l145.575,84.011c7.874,4.547,19.788,5.042,26.6,1.094l63.74-36.814c2.878-1.669,4.374-3.856,4.57-6.17l.012-.012a22.488,22.488,0,0,0-.38-8.208l-4.236.242v.011a19.405,19.405,0,0,0-1.865-1.232L348.76,166.324c-7.874-4.547-19.788-5.042-26.6-1.094l-63.74,36.814-4.846-.253a13.527,13.527,0,0,0,1.335,10.637.485.485,0,0,0,.058.081c.069.115.15.23.219.334C255.182,212.877,255.182,212.888,255.193,212.9Z" transform="translate(-253.035 -162.563)" fill="#150035"/>
              </g>
              <g id="XMLID_24502_">
                <path id="XMLID_24503_" d="M421.039,306.016a31.706,31.706,0,0,1-15.426-3.845L260.038,218.149a15.837,15.837,0,0,1-5.364-4.743l-.092-.127c-.058-.092-.127-.184-.184-.276a14.271,14.271,0,0,1-1.462-11.35l.184-.518,5.18.276,63.555-36.71c7.011-4.052,19.282-3.557,27.352,1.094l145.575,84.023a19.111,19.111,0,0,1,1.692,1.105l4.616-.253.15.587a22.944,22.944,0,0,1,.391,8.519l-.012.069c-.265,2.625-1.968,4.9-4.927,6.619l-63.74,36.814A24.236,24.236,0,0,1,421.039,306.016ZM255.894,212.565l.012.023a14.358,14.358,0,0,0,4.881,4.294l145.575,84.023c7.655,4.42,19.259,4.915,25.867,1.094l63.74-36.814c2.567-1.485,4.018-3.419,4.2-5.595l.081-.414a21.764,21.764,0,0,0-.3-6.965l-3.1.173-.15.507-.84-.6a19.97,19.97,0,0,0-1.8-1.186L348.493,167.083c-7.655-4.42-19.259-4.915-25.866-1.094l-63.935,36.929-4.478-.23a12.99,12.99,0,0,0,1.427,9.486c.092.15.15.219.2.3l-.541.53Z" transform="translate(-252.363 -161.956)" fill="#150035"/>
              </g>
            </g>
            <g id="XMLID_24494_" transform="translate(0.526)">
              <g id="XMLID_24499_" transform="translate(0.74 0.73)">
                <path id="XMLID_24500_" d="M258.064,196.513,321.8,159.7c6.815-3.937,18.729-3.442,26.6,1.094L493.982,244.8c7.874,4.547,8.737,11.419,1.911,15.356l-63.74,36.814c-6.815,3.937-18.729,3.442-26.6-1.094L259.975,211.858C252.1,207.322,251.249,200.45,258.064,196.513Z" transform="translate(-253.463 -157.041)" fill="#fff"/>
              </g>
              <g id="XMLID_24495_">
                <path id="XMLID_24496_" d="M420.7,300.466a31.705,31.705,0,0,1-15.426-3.845L259.7,212.6c-4.374-2.521-6.884-5.928-6.884-9.324,0-2.866,1.761-5.456,4.973-7.31l63.74-36.814c7.011-4.052,19.282-3.557,27.352,1.094l145.575,84.023c4.374,2.521,6.884,5.928,6.884,9.324,0,2.866-1.761,5.456-4.973,7.31l-63.74,36.814A24.314,24.314,0,0,1,420.7,300.466ZM333.47,157.861a22.767,22.767,0,0,0-11.189,2.567l-63.74,36.814c-2.728,1.577-4.236,3.718-4.236,6.032,0,2.866,2.245,5.79,6.147,8.047l145.564,84.023c7.655,4.42,19.259,4.915,25.867,1.094l63.74-36.814c2.728-1.577,4.236-3.718,4.236-6.032,0-2.855-2.245-5.79-6.147-8.047L348.136,161.533A30.074,30.074,0,0,0,333.47,157.861Z" transform="translate(-252.82 -156.406)" fill="#150035"/>
              </g>
            </g>
            <g id="XMLID_24487_" transform="translate(5.764 4.871)">
              <g id="XMLID_24492_" transform="translate(0.737 0.738)">
                <path id="XMLID_24493_" d="M321.773,164.031l-4.708,2.728c-1.531.886-1.52,2.325,0,3.212h0c1.531.875,1.531,2.325,0,3.212l-35.456,20.548a6.157,6.157,0,0,1-5.549.011h0a6.157,6.157,0,0,0-5.549.012l-9.935,5.756c-3.43,1.992-3.419,5.226.012,7.206l147.314,84.7c6.308,3.626,16.634,3.615,22.931-.035l61.2-35.467c3.43-1.992,3.419-5.226-.012-7.206L344.7,164.008C338.384,160.359,328.069,160.371,321.773,164.031Z" transform="translate(-258.01 -161.279)" fill="#39a1ff"/>
              </g>
              <g id="XMLID_24488_">
                <path id="XMLID_24489_" d="M419.418,294.957a24.119,24.119,0,0,1-11.788-2.809l-147.314-84.7c-1.9-1.094-2.947-2.6-2.947-4.236s1.036-3.154,2.935-4.248l9.935-5.756a6.869,6.869,0,0,1,6.3-.012,5.4,5.4,0,0,0,4.812-.011L316.8,172.635c.495-.288.771-.633.771-.967s-.288-.679-.783-.967a2.421,2.421,0,0,1-.011-4.49l4.708-2.728c6.516-3.776,17.141-3.8,23.668-.046l147.314,84.7c1.9,1.094,2.947,2.6,2.947,4.236s-1.036,3.154-2.935,4.248l-61.2,35.467A23.991,23.991,0,0,1,419.418,294.957ZM273.394,193.909a4.935,4.935,0,0,0-2.417.564l-9.935,5.756c-1.416.817-2.2,1.876-2.2,2.97s.783,2.141,2.21,2.958l147.314,84.7c6.124,3.523,16.082,3.5,22.194-.035l61.2-35.467c1.416-.829,2.2-1.876,2.2-2.97s-.783-2.141-2.21-2.958l-147.314-84.7c-6.124-3.523-16.082-3.5-22.194.035l-4.708,2.728c-.495.288-.771.633-.771.967s.288.679.783.967a2.421,2.421,0,0,1,.011,4.49L282.1,194.461a6.868,6.868,0,0,1-6.3.012A4.921,4.921,0,0,0,273.394,193.909Z" transform="translate(-257.37 -160.637)" fill="#150035"/>
              </g>
            </g>
            <g id="XMLID_24484_" transform="translate(52.717 16.581)">
              <g id="XMLID_24485_">
                <path id="XMLID_24486_" d="M298.8,173.009a.962.962,0,0,1,0-1.819,3.44,3.44,0,0,1,3.143,0,.962.962,0,0,1,0,1.819A3.44,3.44,0,0,1,298.8,173.009Z" transform="translate(-298.157 -170.81)" fill="#150035"/>
              </g>
            </g>
            <g id="XMLID_24481_" transform="translate(29.628 19.418)">
              <g id="XMLID_24482_">
                <path id="XMLID_24483_" d="M278.606,184.24l18.476-10.671a3.24,3.24,0,0,1,2.935.127h0c.863.507.967,1.255.207,1.692l-18.476,10.671a3.24,3.24,0,0,1-2.935-.127h0C277.95,185.426,277.858,184.677,278.606,184.24Z" transform="translate(-278.1 -173.275)" fill="#150035"/>
              </g>
            </g>
            <g id="XMLID_24478_" transform="translate(165.803 143.834)">
              <g id="XMLID_24479_" transform="translate(0 0)">
                <rect id="XMLID_24480_" width="5.526" height="0.852" transform="translate(0 5.525) rotate(-89.404)" fill="#39a1ff"/>
              </g>
            </g>
            <g id="XMLID_24475_" transform="translate(244.019 103.447)">
              <g id="XMLID_24476_">
                <path id="XMLID_24477_" d="M465.157,252.417l-.817-.253a10.6,10.6,0,0,0,.023-5.641l.817-.253A11.387,11.387,0,0,1,465.157,252.417Z" transform="translate(-464.34 -246.27)" fill="#39a1ff"/>
              </g>
            </g>
            <g id="XMLID_24472_" transform="translate(241.475 104.932)">
              <g id="XMLID_24473_">
                <path id="XMLID_24474_" d="M462.947,253.707l-.817-.253a10.6,10.6,0,0,0,.023-5.641l.817-.253A11.387,11.387,0,0,1,462.947,253.707Z" transform="translate(-462.13 -247.56)" fill="#39a1ff"/>
              </g>
            </g>
            <g id="XMLID_24469_" transform="translate(7.594 56.181)">
              <g id="XMLID_24470_">
                <path id="XMLID_24471_" d="M259.386,211.288a27.625,27.625,0,0,1-.4-6.078l.852.035a28.324,28.324,0,0,0,.38,5.848Z" transform="translate(-258.96 -205.21)" fill="#39a1ff"/>
              </g>
            </g>
            <g id="XMLID_24466_" transform="translate(4.785 54.569)">
              <g id="XMLID_24467_">
                <path id="XMLID_24468_" d="M256.946,209.888a27.624,27.624,0,0,1-.4-6.078l.852.035a28.325,28.325,0,0,0,.38,5.848Z" transform="translate(-256.52 -203.81)" fill="#39a1ff"/>
              </g>
            </g>
            <g id="XMLID_24437_" transform="translate(25.598 67.916)">
              <g id="XMLID_24461_" transform="translate(12.985 7.494)">
                <g id="XMLID_24462_">
                  <path id="XMLID_24463_" d="M297.392,231.452a1.914,1.914,0,0,1-.932-.276l-8.933-5.157a3.4,3.4,0,0,1-1.646-2.636v-.219a1.189,1.189,0,0,1,.564-1.105,1.537,1.537,0,0,1,1.508.127l8.933,5.157a3.4,3.4,0,0,1,1.646,2.636v.219a1.189,1.189,0,0,1-.564,1.105A1.1,1.1,0,0,1,297.392,231.452Zm-10.372-8.68a.334.334,0,0,0-.161.035c-.115.069-.138.265-.138.368v.219a2.59,2.59,0,0,0,1.22,1.9l8.933,5.157c.322.184.553.184.656.127s.138-.265.138-.368v-.219a2.59,2.59,0,0,0-1.22-1.9l-8.933-5.157A.911.911,0,0,0,287.02,222.773Z" transform="translate(-285.88 -221.914)" fill="#39a1ff"/>
                </g>
              </g>
              <g id="XMLID_24456_" transform="translate(27.317 15.759)">
                <g id="XMLID_24457_">
                  <path id="XMLID_24458_" d="M309.842,238.632a1.914,1.914,0,0,1-.932-.276l-8.933-5.157a3.4,3.4,0,0,1-1.646-2.636v-.219a1.189,1.189,0,0,1,.564-1.105,1.536,1.536,0,0,1,1.508.127l8.933,5.157a3.4,3.4,0,0,1,1.646,2.636v.219a1.189,1.189,0,0,1-.564,1.105A1.1,1.1,0,0,1,309.842,238.632Zm-10.372-8.68a.334.334,0,0,0-.161.035c-.115.069-.138.265-.138.368v.219a2.59,2.59,0,0,0,1.22,1.9l8.933,5.157c.322.184.564.184.656.127.115-.069.138-.265.138-.368v-.219a2.59,2.59,0,0,0-1.22-1.9l-8.933-5.157A1.021,1.021,0,0,0,299.47,229.953Z" transform="translate(-298.33 -229.094)" fill="#39a1ff"/>
                </g>
              </g>
              <g id="XMLID_24451_" transform="translate(179.534 53.118)">
                <g id="XMLID_24452_">
                  <path id="XMLID_24453_" d="M431.124,270.944a1.189,1.189,0,0,1-.564-1.105v-.219a3.42,3.42,0,0,1,1.646-2.636l8.933-5.157a1.481,1.481,0,0,1,1.508-.127,1.189,1.189,0,0,1,.564,1.105v.219a3.42,3.42,0,0,1-1.646,2.636l-8.933,5.157a1.913,1.913,0,0,1-.932.276A1.1,1.1,0,0,1,431.124,270.944Zm10.441-8.369-8.933,5.157a2.538,2.538,0,0,0-1.22,1.9v.219c0,.1.023.3.138.368s.334.058.656-.127l8.933-5.157a2.538,2.538,0,0,0,1.22-1.9v-.219c0-.1-.023-.3-.138-.368a.3.3,0,0,0-.161-.035A1.1,1.1,0,0,0,441.565,262.575Z" transform="translate(-430.56 -261.547)" fill="#39a1ff"/>
                </g>
              </g>
              <g id="XMLID_24438_">
                <g id="XMLID_24446_">
                  <g id="XMLID_24447_">
                    <path id="XMLID_24448_" d="M282.2,222.686a1.913,1.913,0,0,1-.932-.276l-5.019-2.9a3.4,3.4,0,0,1-1.646-2.636v-.219a1.189,1.189,0,0,1,.564-1.105,1.537,1.537,0,0,1,1.508.127l5.019,2.9a3.4,3.4,0,0,1,1.646,2.636v.219a1.189,1.189,0,0,1-.564,1.105A1.223,1.223,0,0,1,282.2,222.686Zm-6.458-6.435a.334.334,0,0,0-.161.035c-.115.069-.138.265-.138.368v.219a2.59,2.59,0,0,0,1.22,1.9l5.019,2.9c.322.184.553.184.656.127s.138-.265.138-.368v-.219a2.59,2.59,0,0,0-1.22-1.9l-5.019-2.9A1.1,1.1,0,0,0,275.74,216.251Z" transform="translate(-274.6 -215.404)" fill="#39a1ff"/>
                  </g>
                </g>
                <g id="XMLID_24439_" transform="translate(3.902 2.256)">
                  <g id="XMLID_24444_" transform="translate(0.426 0.422)">
                    <path id="XMLID_24445_" d="M278.36,218.777v-.219c0-.794.645-1.059,1.439-.61l1.117.645a2.986,2.986,0,0,1,1.439,2.268v.219c0,.794-.645,1.059-1.439.61l-1.117-.645A2.986,2.986,0,0,1,278.36,218.777Z" transform="translate(-278.36 -217.731)" fill="#39a1ff"/>
                  </g>
                  <g id="XMLID_24440_">
                    <path id="XMLID_24441_" d="M281.685,222.39a1.913,1.913,0,0,1-.932-.276l-1.117-.645a3.4,3.4,0,0,1-1.646-2.636v-.219a1.189,1.189,0,0,1,.564-1.105,1.535,1.535,0,0,1,1.508.127l1.117.645a3.4,3.4,0,0,1,1.646,2.636v.219a1.189,1.189,0,0,1-.564,1.105A1.223,1.223,0,0,1,281.685,222.39Zm-2.843-3.557a2.59,2.59,0,0,0,1.22,1.9l1.117.645c.322.184.553.184.656.127s.138-.265.138-.368v-.219a2.59,2.59,0,0,0-1.22-1.9l-1.117-.645c-.322-.184-.564-.184-.656-.127-.115.069-.138.265-.138.368Z" transform="translate(-277.99 -217.364)" fill="#39a1ff"/>
                  </g>
                </g>
              </g>
            </g>
            <g id="XMLID_24434_" transform="translate(168.842 143.819)">
              <g id="XMLID_24435_" transform="translate(0 0)">
                <rect id="XMLID_24436_" width="0.852" height="5.71" transform="translate(0 0.011) rotate(-0.733)" fill="#39a1ff"/>
              </g>
            </g>
            <g id="XMLID_24431_" transform="translate(179.294 141.205)">
              <g id="XMLID_24432_" transform="translate(0 0)">
                <rect id="XMLID_24433_" width="0.852" height="5.71" transform="translate(0 0.011) rotate(-0.733)" fill="#39a1ff"/>
              </g>
            </g>
            <g id="XMLID_24428_" transform="translate(157.798 142.319)">
              <g id="XMLID_24429_" transform="translate(0 0)">
                <rect id="XMLID_24430_" width="5.526" height="0.852" transform="translate(0 5.525) rotate(-89.404)" fill="#39a1ff"/>
              </g>
            </g>
            <g id="XMLID_24425_" transform="translate(144.821 135.305)">
              <g id="XMLID_24426_" transform="translate(0 0)">
                <rect id="XMLID_24427_" width="5.526" height="0.852" transform="translate(0 5.525) rotate(-89.404)" fill="#39a1ff"/>
              </g>
            </g>
          </g>
          <g id="XMLID_24391_" transform="translate(146.424 83.325)">
            <g id="XMLID_24414_" transform="translate(37.77 22.907)">
              <g id="XMLID_24422_" transform="translate(0 0)">
                <rect id="XMLID_24423_" width="1.14" height="1.704" transform="matrix(0.5, -0.866, 0.866, 0.5, 0, 0.987)" fill="#fff"/>
              </g>
              <g id="XMLID_24417_" transform="translate(4.075 2.361)">
                <path id="XMLID_24418_" d="M429,259.282l-2.613-1.508.564-.978,2.613,1.508Zm-5.238-3.028-2.613-1.508.564-.979,2.613,1.508Zm-5.238-3.028-2.613-1.508.564-.978,2.613,1.508Z" transform="translate(-415.91 -250.74)" fill="#fff"/>
              </g>
              <g id="XMLID_24415_" transform="translate(19.805 11.44)">
                <rect id="XMLID_24416_" width="1.14" height="1.704" transform="translate(0 0.987) rotate(-59.961)" fill="#fff"/>
              </g>
            </g>
            <g id="XMLID_24392_">
              <g id="XMLID_24405_">
                <g id="XMLID_24409_" transform="translate(0 2.797)">
                  <g id="XMLID_24410_">
                    <path id="XMLID_24411_" d="M438.868,240.429l-43.491,24.9L379.56,256.12l43.491-24.9Zm-43.479,23.829L437,240.429,423.051,232.3l-41.614,23.829Z" transform="translate(-379.56 -231.22)" fill="#fff"/>
                  </g>
                </g>
                <g id="XMLID_24406_" transform="translate(0.944)">
                  <g id="XMLID_24407_">
                    <path id="XMLID_24408_" d="M437.811,237.458l-42.547,24.359L380.38,253.16l42.547-24.37Z" transform="translate(-380.38 -228.79)" fill="#150035"/>
                  </g>
                </g>
              </g>
              <g id="XMLID_24393_" transform="translate(19.627 10.222)">
                <g id="XMLID_24401_" transform="translate(0 6.573)">
                  <path id="XMLID_24402_" d="M403.954,246.845a3.67,3.67,0,0,1-1.059.4,4.256,4.256,0,0,1-1.22.069l-.058.035c.322.15.622.3.875.437l2.038,1.174-.748.437-7.172-4.144.61-.357.783.334.035-.023a.88.88,0,0,1,.081-.725,1.879,1.879,0,0,1,.7-.61,3.725,3.725,0,0,1,2.187-.483,5.526,5.526,0,0,1,2.417.783c.817.472,1.266.944,1.347,1.4C404.875,246.051,404.6,246.477,403.954,246.845Zm-4.593-2.533c-.507.288-.737.587-.679.875s.38.622.99.967l.173.092a4.358,4.358,0,0,0,1.842.656,2.794,2.794,0,0,0,1.566-.38c.426-.242.587-.541.483-.875a2.1,2.1,0,0,0-1.071-1.036,4.285,4.285,0,0,0-1.784-.61A2.556,2.556,0,0,0,399.361,244.312Z" transform="translate(-396.61 -243.38)" fill="#39a1ff"/>
                </g>
                <g id="XMLID_24397_" transform="translate(6.216 3.545)">
                  <path id="XMLID_24398_" d="M409.458,243.49l-.852-.322-.035.023a1.113,1.113,0,0,1-.1.794,2.246,2.246,0,0,1-.748.622,3.138,3.138,0,0,1-1.531.449,2.871,2.871,0,0,1-1.5-.38c-1-.576-.725-1.335.829-2.291l.817-.5-.311-.173a2.478,2.478,0,0,0-1.105-.357,2.057,2.057,0,0,0-1.082.3,2.91,2.91,0,0,0-1.025,1.025l-.806-.2a2.686,2.686,0,0,1,.495-.645,3.834,3.834,0,0,1,.76-.564,3.523,3.523,0,0,1,1.7-.53,3.214,3.214,0,0,1,1.681.483l3.373,1.945Zm-2.222.668c.472-.265.7-.553.714-.852s-.219-.587-.679-.852l-.449-.253-.714.449a2.5,2.5,0,0,0-1.013.909c-.1.242.023.472.368.668a1.56,1.56,0,0,0,.863.219A2.1,2.1,0,0,0,407.236,244.158Z" transform="translate(-402.01 -240.749)" fill="#39a1ff"/>
                </g>
                <g id="XMLID_24394_" transform="translate(10.027)">
                  <path id="XMLID_24395_" d="M405.32,240.341l.806-.46,3.9,1a17.52,17.52,0,0,1,1.842.553l.035-.023c-.115-.115-.3-.311-.541-.6s-.978-1.186-2.2-2.682l.806-.46,3.511,4.478a1.56,1.56,0,0,1,.449,1.105,1.223,1.223,0,0,1-.691.806,4.949,4.949,0,0,1-.748.345l-.6-.345a3.646,3.646,0,0,0,.61-.288.669.669,0,0,0,.23-1.14l-.426-.564Z" transform="translate(-405.32 -237.67)" fill="#39a1ff"/>
                </g>
              </g>
            </g>
          </g>
          <g id="XMLID_24341_" transform="translate(32.92 18.631)">
            <g id="XMLID_24387_">
              <path id="XMLID_24388_" d="M304.087,222.608a5.174,5.174,0,0,1-2.51-.633L282.215,210.8a2.174,2.174,0,0,1-1.255-1.784,1.735,1.735,0,0,1,.967-1.485l59.688-34.466a4.938,4.938,0,0,1,4.513.161L365.49,184.4a2.174,2.174,0,0,1,1.255,1.784,1.735,1.735,0,0,1-.967,1.485L306.09,222.136A4.121,4.121,0,0,1,304.087,222.608Zm39.519-48.878a2.906,2.906,0,0,0-1.427.322l-59.688,34.466c-.15.092-.4.265-.4.495,0,.2.184.507.679.794l19.363,11.178a3.832,3.832,0,0,0,3.384.161L365.2,186.68c.15-.081.4-.265.4-.495,0-.2-.184-.507-.679-.794l-19.363-11.178A4.009,4.009,0,0,0,343.606,173.729Z" transform="translate(-280.96 -172.591)" fill="#fff"/>
            </g>
            <g id="XMLID_24383_" transform="translate(27.559 15.908)">
              <path id="XMLID_24384_" d="M312.854,227.667a5.174,5.174,0,0,1-2.51-.633l-4.19-2.417a2.174,2.174,0,0,1-1.255-1.784,1.735,1.735,0,0,1,.967-1.485l59.687-34.466a4.938,4.938,0,0,1,4.513.161l4.19,2.417a2.174,2.174,0,0,1,1.255,1.784,1.735,1.735,0,0,1-.967,1.485L314.858,227.2A4.153,4.153,0,0,1,312.854,227.667Zm54.691-40.118a2.906,2.906,0,0,0-1.427.322l-59.687,34.466c-.15.092-.4.265-.4.495,0,.2.184.506.679.794l4.19,2.417a3.833,3.833,0,0,0,3.384.161l59.688-34.466c.15-.092.4-.265.4-.495,0-.2-.184-.507-.679-.794l-4.19-2.417A4.009,4.009,0,0,0,367.546,187.55Z" transform="translate(-304.9 -186.41)" fill="#fff"/>
            </g>
            <g id="XMLID_24379_" transform="translate(67.251 38.832)">
              <path id="XMLID_24380_" d="M347.335,247.577a5.174,5.174,0,0,1-2.51-.633l-4.19-2.417a2.174,2.174,0,0,1-1.255-1.784,1.735,1.735,0,0,1,.967-1.485l59.688-34.466a4.973,4.973,0,0,1,4.513.161l4.19,2.417a2.174,2.174,0,0,1,1.255,1.784,1.735,1.735,0,0,1-.967,1.485L349.338,247.1A4.089,4.089,0,0,1,347.335,247.577Zm54.7-40.118a2.876,2.876,0,0,0-1.427.322l-59.687,34.466c-.15.092-.4.265-.4.495,0,.2.184.507.679.794l4.19,2.417a3.833,3.833,0,0,0,3.384.161l59.688-34.466c.15-.092.4-.265.4-.5,0-.2-.184-.506-.679-.794l-4.19-2.417A4.041,4.041,0,0,0,402.038,207.459Z" transform="translate(-339.38 -206.325)" fill="#fff"/>
            </g>
            <g id="XMLID_24375_" transform="translate(70.462 40.819)">
              <path id="XMLID_24376_" d="M359.161,254.384a5.174,5.174,0,0,1-2.509-.633l-13.227-7.494a2.174,2.174,0,0,1-1.255-1.784,1.735,1.735,0,0,1,.967-1.485l59.688-34.466a4.938,4.938,0,0,1,4.513.161l13.227,7.494a2.174,2.174,0,0,1,1.255,1.784,1.735,1.735,0,0,1-.967,1.485l-59.688,34.466A4.153,4.153,0,0,1,359.161,254.384Zm45.655-45.206a2.906,2.906,0,0,0-1.427.322L343.7,243.966c-.15.092-.4.265-.4.495,0,.2.184.507.679.794l13.227,7.506a3.8,3.8,0,0,0,3.384.161l59.688-34.466c.15-.092.4-.265.4-.5,0-.2-.184-.507-.679-.794l-13.227-7.494A4.017,4.017,0,0,0,404.816,209.178Z" transform="translate(-342.17 -208.051)" fill="#fff"/>
            </g>
            <g id="XMLID_24371_" transform="translate(40.44 42.903)">
              <path id="XMLID_24372_" d="M338.353,239.825a5.174,5.174,0,0,1-2.509-.633l-18.5-10.683a2.174,2.174,0,0,1-1.255-1.784,1.735,1.735,0,0,1,.967-1.485l25.82-14.907a4.938,4.938,0,0,1,4.513.161l18.5,10.683a2.174,2.174,0,0,1,1.255,1.784,1.735,1.735,0,0,1-.967,1.485l-25.82,14.908A4.09,4.09,0,0,1,338.353,239.825ZM344.869,211a2.906,2.906,0,0,0-1.427.322l-25.82,14.908c-.15.092-.4.265-.4.495,0,.2.184.506.679.794L336.4,238.2a3.832,3.832,0,0,0,3.384.161l25.82-14.907c.15-.092.4-.265.4-.5,0-.2-.184-.507-.679-.794l-18.5-10.683A4.009,4.009,0,0,0,344.869,211Z" transform="translate(-316.09 -209.861)" fill="#fff"/>
            </g>
            <g id="XMLID_24367_" transform="translate(74.319 23.345)">
              <path id="XMLID_24368_" d="M367.783,222.834a5.174,5.174,0,0,1-2.51-.633l-18.5-10.683a2.174,2.174,0,0,1-1.255-1.784,1.735,1.735,0,0,1,.967-1.485l25.82-14.907a4.938,4.938,0,0,1,4.513.161l18.5,10.683a2.174,2.174,0,0,1,1.255,1.784,1.735,1.735,0,0,1-.967,1.485l-25.82,14.907A4.026,4.026,0,0,1,367.783,222.834Zm6.516-28.825a2.876,2.876,0,0,0-1.427.322l-25.82,14.907c-.15.092-.4.265-.4.495,0,.2.184.507.679.794l18.5,10.683a3.833,3.833,0,0,0,3.384.161l25.82-14.908c.15-.092.4-.265.4-.495,0-.2-.184-.506-.679-.794l-18.5-10.683A4.174,4.174,0,0,0,374.3,194.009Z" transform="translate(-345.52 -192.871)" fill="#fff"/>
            </g>
            <g id="XMLID_24346_" transform="translate(23.299 13.272)">
              <g id="XMLID_24364_" transform="translate(0 16.45)">
                <path id="XMLID_24365_" d="M311.664,203.279,309.88,204.3,305,201.484l-.783-.472-.852-.518a4.351,4.351,0,0,1-.035.691l-.2,1.013-1.934-.127.553-2.82,1.462-.84Z" transform="translate(-301.2 -198.41)" fill="#fff"/>
              </g>
              <g id="XMLID_24360_" transform="translate(4.932 13.243)">
                <path id="XMLID_24361_" d="M314,197.1c1.473.852,2.325,1.623,2.544,2.3s-.161,1.324-1.163,1.9a5.231,5.231,0,0,1-3.292.633,10.452,10.452,0,0,1-3.972-1.439c-1.485-.863-2.348-1.635-2.567-2.314s.161-1.312,1.163-1.888a5.271,5.271,0,0,1,3.315-.633A10.52,10.52,0,0,1,314,197.1Zm-4.121,2.383a10.253,10.253,0,0,0,2.487,1.128,2.064,2.064,0,0,0,1.577-.138c.414-.242.484-.541.219-.909a6.655,6.655,0,0,0-1.934-1.439,10.6,10.6,0,0,0-2.51-1.128,2.108,2.108,0,0,0-1.577.127c-.414.242-.495.541-.219.909A6.662,6.662,0,0,0,309.877,199.487Z" transform="translate(-305.484 -195.624)" fill="#fff"/>
              </g>
              <g id="XMLID_24356_" transform="translate(11.678 9.352)">
                <path id="XMLID_24357_" d="M319.858,193.724c1.473.852,2.325,1.623,2.544,2.3s-.161,1.324-1.163,1.9a5.231,5.231,0,0,1-3.292.633,10.452,10.452,0,0,1-3.972-1.439c-1.485-.863-2.348-1.635-2.567-2.314s.161-1.312,1.163-1.888a5.271,5.271,0,0,1,3.315-.633A10.519,10.519,0,0,1,319.858,193.724Zm-4.133,2.383a10.255,10.255,0,0,0,2.486,1.128,2.064,2.064,0,0,0,1.577-.138c.414-.242.483-.541.219-.909a6.655,6.655,0,0,0-1.934-1.439,10.6,10.6,0,0,0-2.509-1.128,2.108,2.108,0,0,0-1.577.127c-.414.242-.5.541-.219.909A7.252,7.252,0,0,0,315.725,196.107Z" transform="translate(-311.344 -192.244)" fill="#fff"/>
              </g>
              <g id="XMLID_24352_" transform="translate(18.412 5.461)">
                <path id="XMLID_24353_" d="M325.708,190.344c1.473.852,2.325,1.623,2.544,2.3s-.161,1.324-1.163,1.9a5.231,5.231,0,0,1-3.292.633,10.452,10.452,0,0,1-3.972-1.439c-1.485-.863-2.348-1.635-2.567-2.314s.161-1.312,1.163-1.888a5.271,5.271,0,0,1,3.315-.633A10.453,10.453,0,0,1,325.708,190.344Zm-4.121,2.383a10.255,10.255,0,0,0,2.487,1.128,2.064,2.064,0,0,0,1.577-.138c.414-.242.484-.541.219-.909a6.654,6.654,0,0,0-1.934-1.439,10.4,10.4,0,0,0-2.51-1.128,2.049,2.049,0,0,0-1.577.127c-.414.242-.495.541-.219.909A7.058,7.058,0,0,0,321.587,192.727Z" transform="translate(-317.194 -188.864)" fill="#fff"/>
              </g>
              <g id="XMLID_24347_" transform="translate(27.363)">
                <path id="XMLID_24348_" d="M334.916,186.894c.61.357.886.76.806,1.232a2.488,2.488,0,0,1-1.186,1.462l1.186.679-.794.46-1.163-.668a11.146,11.146,0,0,1-2.97,1.14l-1.52-.875a11.561,11.561,0,0,0,1.646-.449,12.7,12.7,0,0,0,1.485-.6l-1.784-1.036-.541.138a9.824,9.824,0,0,1-2.59.368,3.779,3.779,0,0,1-1.784-.483q-.829-.483-.725-1.174a2.457,2.457,0,0,1,1.174-1.427l-.886-.507.794-.46.863.495a11.7,11.7,0,0,1,2.924-1.071l.806,1.094a11.384,11.384,0,0,0-2.291.806l1.7.978a21.467,21.467,0,0,1,2.348-.495,5.615,5.615,0,0,1,1.393,0A3.242,3.242,0,0,1,334.916,186.894Zm-7.459.368a1.124,1.124,0,0,0,.6.138,4.055,4.055,0,0,0,.909-.138l-1.358-.783C327.169,186.814,327.123,187.078,327.457,187.263Zm5.813.679a1.116,1.116,0,0,0-.61-.127,6.085,6.085,0,0,0-.932.138l1.439.829C333.6,188.437,333.638,188.161,333.27,187.942Z" transform="translate(-324.97 -184.12)" fill="#fff"/>
              </g>
            </g>
            <g id="XMLID_24344_" transform="translate(44.864 45.614)">
              <rect id="XMLID_24345_" width="34.051" height="1.14" transform="translate(0 17.039) rotate(-30.026)" fill="#fff"/>
            </g>
            <g id="XMLID_24342_" transform="translate(78.825 25.841)">
              <rect id="XMLID_24343_" width="34.051" height="1.14" transform="matrix(0.866, -0.5, 0.5, 0.866, 0, 17.036)" fill="#fff"/>
            </g>
          </g>
        </g>
        <g id="XMLID_24321_" transform="translate(210.269 91.263)">
          <g id="XMLID_24338_" transform="translate(0.025 16.934)">
            <path id="XMLID_24339_" d="M435.051,250.424c1.082.875.184,2.118.012,2.337-.012.012.012.023.035.012a7.23,7.23,0,0,1,4.041.012c.023.011.046,0,.035-.023-1.082-.886-.173-2.13,0-2.348.012-.012-.011-.023-.035-.012a7.4,7.4,0,0,1-4.064,0C435.063,250.4,435.028,250.412,435.051,250.424Z" transform="translate(-435.043 -250.396)" fill="#150035"/>
          </g>
          <g id="XMLID_24336_" transform="translate(5.884 13.549)">
            <path id="XMLID_24337_" d="M440.141,247.484c1.082.875.184,2.118.011,2.337-.011.012.012.023.035.012a7.23,7.23,0,0,1,4.041.012c.023.011.046,0,.034-.023-1.082-.875-.173-2.13,0-2.348.012-.012-.011-.023-.034-.012a7.4,7.4,0,0,1-4.064,0C440.153,247.461,440.118,247.472,440.141,247.484Z" transform="translate(-440.133 -247.456)" fill="#150035"/>
          </g>
          <g id="XMLID_24334_" transform="translate(11.744 10.158)">
            <path id="XMLID_24335_" d="M445.231,244.545c1.082.875.184,2.118.012,2.337-.012.012.012.023.034.012a7.231,7.231,0,0,1,4.041.012c.023.012.046,0,.035-.023-1.082-.886-.173-2.13,0-2.348.012-.011-.012-.023-.035-.023a7.4,7.4,0,0,1-4.064,0C445.243,244.522,445.208,244.533,445.231,244.545Z" transform="translate(-445.223 -244.51)" fill="#150035"/>
          </g>
          <g id="XMLID_24332_" transform="translate(17.603 6.78)">
            <path id="XMLID_24333_" d="M450.321,241.6c1.082.875.184,2.118.012,2.337-.012.012.012.023.035.012a7.231,7.231,0,0,1,4.041.012c.023.012.046,0,.034-.023-1.082-.875-.173-2.13,0-2.348.012-.012-.011-.023-.034-.012a7.4,7.4,0,0,1-4.064,0C450.333,241.581,450.3,241.592,450.321,241.6Z" transform="translate(-450.313 -241.576)" fill="#150035"/>
          </g>
          <g id="XMLID_24330_" transform="translate(23.462 3.389)">
            <path id="XMLID_24331_" d="M455.411,238.665c1.082.875.184,2.118.011,2.337-.011.012.012.023.035.012a7.231,7.231,0,0,1,4.041.012c.023.012.046,0,.034-.023-1.082-.886-.173-2.13,0-2.348.012-.011-.012-.023-.034-.023a7.4,7.4,0,0,1-4.064,0C455.422,238.642,455.388,238.653,455.411,238.665Z" transform="translate(-455.403 -238.63)" fill="#150035"/>
          </g>
          <g id="XMLID_24328_" transform="translate(0 10.153)">
            <path id="XMLID_24329_" d="M435.031,244.534c1.082.875.184,2.118.012,2.337-.012.012.012.023.035.012a7.231,7.231,0,0,1,4.041.012c.023.011.046,0,.035-.023-1.082-.886-.173-2.13,0-2.348.012-.011-.012-.023-.035-.011a7.4,7.4,0,0,1-4.064,0C435.031,244.511,435.008,244.522,435.031,244.534Z" transform="translate(-435.022 -244.506)" fill="#150035"/>
          </g>
          <g id="XMLID_24326_" transform="translate(5.859 6.769)">
            <path id="XMLID_24327_" d="M440.121,241.594c1.082.875.184,2.118.012,2.337-.012.012.012.023.035.012a7.231,7.231,0,0,1,4.041.012c.023.012.046,0,.035-.023-1.082-.886-.173-2.13,0-2.348.012-.011-.012-.023-.035-.011a7.4,7.4,0,0,1-4.064,0C440.121,241.571,440.1,241.582,440.121,241.594Z" transform="translate(-440.112 -241.566)" fill="#150035"/>
          </g>
          <g id="XMLID_24324_" transform="translate(11.719 3.378)">
            <path id="XMLID_24325_" d="M445.211,238.655c1.082.875.184,2.118.012,2.337-.012.012.012.023.035.012a7.23,7.23,0,0,1,4.041.012c.023.011.046,0,.034-.023-1.082-.886-.173-2.13,0-2.348.011-.012-.012-.023-.034-.023a7.4,7.4,0,0,1-4.064,0C445.211,238.632,445.188,238.643,445.211,238.655Z" transform="translate(-445.202 -238.62)" fill="#150035"/>
          </g>
          <g id="XMLID_24322_" transform="translate(17.578)">
            <path id="XMLID_24323_" d="M450.3,235.714c1.082.875.184,2.118.012,2.337-.012.012.012.023.035.012a7.23,7.23,0,0,1,4.041.011c.023.012.046,0,.035-.023-1.082-.875-.173-2.13,0-2.348.012-.012-.012-.023-.035-.012a7.4,7.4,0,0,1-4.064,0C450.3,235.691,450.278,235.7,450.3,235.714Z" transform="translate(-450.292 -235.686)" fill="#150035"/>
          </g>
        </g>
      </g>
      <g id="XMLID_26757_" transform="translate(242.192 48.84)">
        <g id="XMLID_26774_" transform="translate(0 3.734)">
          <g id="XMLID_26928_" transform="translate(19.178 8.462)">
            <path id="XMLID_26932_" d="M332.313,127.5c0-23.012-16.162-51.008-36.089-62.519-9.209-5.318-17.613-6.182-23.99-3.3l-.587.322-6.55,3.638-3.672,6.377c-3.4,4.4-1.3,5.8-1.3,13.814,0,23.012,16.162,51.008,36.089,62.519,7.057,4.075,5.157,3.833,10.717,3l8.473,3.085,6.159-3.477.564-.334C328.422,146.767,332.313,138.777,332.313,127.5Z" transform="translate(-258.756 -59.341)" fill="#fff"/>
            <path id="XMLID_26929_" d="M315.556,155.321l-8.611-3.143c-.437.069-.84.127-1.186.184-3.3.518-3.488.483-6.815-1.531-.783-.472-1.75-1.059-3-1.784-20.1-11.6-36.457-39.934-36.457-63.141a49.192,49.192,0,0,0-.4-6.032c-.368-3.143-.6-5.042,1.853-8.219l3.718-6.47,7.321-4.052c6.884-3.108,15.633-1.922,24.7,3.315,20.1,11.6,36.457,39.934,36.457,63.141,0,11.155-3.741,19.581-10.545,23.748l-.564.334Zm-8.45-4.628,8.323,3.039,6.412-3.638c6.343-3.879,9.831-11.88,9.831-22.494,0-22.747-16.024-50.513-35.732-61.886-8.645-5-16.934-6.159-23.322-3.269l-6.907,3.822-3.569,6.2c-2.141,2.786-1.98,4.179-1.623,7.241a49.091,49.091,0,0,1,.414,6.2c0,22.747,16.024,50.513,35.732,61.886,1.266.725,2.245,1.324,3.028,1.8,2.958,1.8,2.958,1.8,5.825,1.335.4-.069.863-.138,1.381-.219Z" transform="translate(-258.852 -59.434)" fill="#150035"/>
          </g>
          <g id="XMLID_26926_" transform="translate(38.757 44.362)">
            <path id="XMLID_26927_" d="M275.86,127.607a66.568,66.568,0,0,0,18.016,15.978c7.057,4.075,5.157,3.833,10.717,3l8.473,3.085,6.159-3.477.564-.334c6.308-3.868,10.188-11.845,10.188-23.127,0-10.349-3.281-21.711-8.691-32.117L290.71,107.507Z" transform="translate(-275.86 -90.62)" fill="#150035"/>
          </g>
          <g id="XMLID_26921_" transform="translate(0 0)">
            <ellipse id="XMLID_26925_" cx="29.47" cy="51.042" rx="29.47" ry="51.042" transform="matrix(0.866, -0.5, 0.5, 0.866, 0, 29.47)" fill="#fff"/>
            <path id="XMLID_26922_" d="M307.5,156.855c-5.077,0-10.683-1.692-16.485-5.042-20.1-11.6-36.457-39.934-36.457-63.141,0-11.408,3.879-19.927,10.936-24s16.369-3.177,26.246,2.533c20.1,11.6,36.457,39.934,36.457,63.141,0,11.408-3.879,19.927-10.936,24A19.384,19.384,0,0,1,307.5,156.855ZM275.258,63.611a17.867,17.867,0,0,0-9.037,2.314c-6.585,3.8-10.211,11.868-10.211,22.735,0,22.747,16.024,50.5,35.732,61.886,9.4,5.433,18.211,6.331,24.8,2.533s10.211-11.88,10.211-22.735c0-22.747-16.024-50.513-35.732-61.886C285.446,65.234,280.081,63.611,275.258,63.611Z" transform="translate(-240.322 -50.561)" fill="#150035"/>
          </g>
          <g id="XMLID_26916_" transform="translate(7.579 8.76)">
            <ellipse id="XMLID_26920_" cx="25.084" cy="43.456" rx="25.084" ry="43.456" transform="matrix(0.866, -0.5, 0.5, 0.866, 0, 25.084)" fill="#39a1ff"/>
            <path id="XMLID_26917_" d="M304.383,149c-4.34,0-9.129-1.45-14.09-4.305-17.141-9.9-31.093-34.051-31.093-53.851,0-9.75,3.327-17.037,9.359-20.525s14.01-2.717,22.459,2.153c17.141,9.9,31.093,34.051,31.093,53.851,0,9.75-3.327,17.037-9.359,20.525A16.539,16.539,0,0,1,304.383,149ZM276.939,69.632a15.053,15.053,0,0,0-7.644,1.957c-5.572,3.212-8.634,10.05-8.634,19.259,0,19.328,13.618,42.915,30.356,52.585,7.978,4.6,15.426,5.364,21,2.153s8.634-10.05,8.634-19.259c0-19.328-13.618-42.915-30.356-52.585C285.562,71.013,281.014,69.632,276.939,69.632Z" transform="translate(-247.2 -58.411)" fill="#150035"/>
          </g>
          <g id="XMLID_26911_" transform="translate(48.485 41.703)">
            <path id="XMLID_26915_" d="M286.661,89.018l-1.681,17.935,3.488,2.015-1.612-19.846C286.845,88.983,286.672,88.891,286.661,89.018Z" transform="translate(-284.209 -88.212)" fill="#fff"/>
            <path id="XMLID_26912_" d="M289.41,110.389l-5.1-2.947,1.784-19.075.714-.058a.889.889,0,0,1,.863.84Zm-3.557-3.741,1.876,1.082-.921-11.293Z" transform="translate(-284.31 -88.31)" fill="#150035"/>
          </g>
          <g id="XMLID_26909_" transform="translate(51.157 61.72)">
            <rect id="XMLID_26910_" width="1.462" height="15.31" transform="translate(0 1.456) rotate(-84.917)" fill="#150035"/>
          </g>
          <g id="XMLID_26786_" transform="translate(23.908 24.16)">
            <g id="XMLID_26907_" transform="translate(26.56 3.773)">
              <rect id="XMLID_26908_" width="3.914" height="1.128" transform="translate(0 3.914) rotate(-89.5)" fill="#150035"/>
            </g>
            <g id="XMLID_26905_" transform="translate(29.012 5.533)">
              <rect id="XMLID_26906_" width="3.707" height="1.117" transform="translate(0 3.686) rotate(-83.886)" fill="#150035"/>
            </g>
            <g id="XMLID_26903_" transform="translate(31.442 7.567)">
              <rect id="XMLID_26904_" width="3.488" height="1.117" transform="translate(0 3.408) rotate(-77.702)" fill="#150035"/>
            </g>
            <g id="XMLID_26901_" transform="translate(33.824 9.921)">
              <rect id="XMLID_26902_" width="3.281" height="1.117" transform="translate(0 3.096) rotate(-70.665)" fill="#150035"/>
            </g>
            <g id="XMLID_26899_" transform="translate(36.163 12.534)">
              <rect id="XMLID_26900_" width="3.097" height="1.117" transform="translate(0 2.754) rotate(-62.782)" fill="#150035"/>
            </g>
            <g id="XMLID_26897_" transform="translate(38.393 15.367)">
              <rect id="XMLID_26898_" width="2.947" height="1.128" transform="translate(0 2.382) rotate(-53.937)" fill="#150035"/>
            </g>
            <g id="XMLID_26895_" transform="translate(40.498 18.438)">
              <rect id="XMLID_26896_" width="2.843" height="1.128" transform="translate(0 1.987) rotate(-44.331)" fill="#150035"/>
            </g>
            <g id="XMLID_26893_" transform="translate(42.48 21.655)">
              <rect id="XMLID_26894_" width="2.786" height="1.128" transform="translate(0 1.562) rotate(-34.097)" fill="#150035"/>
            </g>
            <g id="XMLID_26891_" transform="translate(44.305 25.046)">
              <rect id="XMLID_26892_" width="2.797" height="1.117" transform="matrix(0.915, -0.403, 0.403, 0.915, 0, 1.126)" fill="#150035"/>
            </g>
            <g id="XMLID_26889_" transform="translate(45.959 28.567)">
              <rect id="XMLID_26890_" width="2.855" height="1.128" transform="matrix(0.972, -0.236, 0.236, 0.972, 0, 0.675)" fill="#150035"/>
            </g>
            <g id="XMLID_26887_" transform="translate(47.381 32.178)">
              <rect id="XMLID_26888_" width="2.981" height="1.117" transform="translate(0 0.215) rotate(-4.14)" fill="#150035"/>
            </g>
            <g id="XMLID_26885_" transform="translate(48.506 35.546)">
              <rect id="XMLID_26886_" width="1.128" height="3.143" transform="translate(0 1.125) rotate(-85.538)" fill="#150035"/>
            </g>
            <g id="XMLID_26883_" transform="translate(49.307 38.722)">
              <rect id="XMLID_26884_" width="1.128" height="3.327" transform="matrix(0.211, -0.978, 0.978, 0.211, 0, 1.103)" fill="#150035"/>
            </g>
            <g id="XMLID_26881_" transform="translate(49.861 41.833)">
              <rect id="XMLID_26882_" width="1.128" height="3.534" transform="translate(0 1.067) rotate(-70.98)" fill="#150035"/>
            </g>
            <g id="XMLID_26879_" transform="translate(50.197 44.868)">
              <rect id="XMLID_26880_" width="1.117" height="3.741" transform="translate(0 1.011) rotate(-64.914)" fill="#150035"/>
            </g>
            <g id="XMLID_26877_" transform="translate(47.027 45.908)">
              <rect id="XMLID_26878_" width="1.117" height="7.747" transform="translate(0 0.964) rotate(-59.73)" fill="#150035"/>
            </g>
            <g id="XMLID_26875_" transform="translate(50.138 50.58)">
              <rect id="XMLID_26876_" width="1.128" height="4.156" transform="translate(0 0.919) rotate(-54.573)" fill="#150035"/>
            </g>
            <g id="XMLID_26873_" transform="translate(49.696 53.196)">
              <rect id="XMLID_26874_" width="1.117" height="4.328" transform="translate(0 0.857) rotate(-50.112)" fill="#150035"/>
            </g>
            <g id="XMLID_26871_" transform="translate(49.031 55.588)">
              <rect id="XMLID_26872_" width="1.128" height="4.49" transform="translate(0 0.811) rotate(-45.98)" fill="#150035"/>
            </g>
            <g id="XMLID_26869_" transform="translate(48.13 57.767)">
              <rect id="XMLID_26870_" width="1.128" height="4.616" transform="matrix(0.742, -0.671, 0.671, 0.742, 0, 0.757)" fill="#150035"/>
            </g>
            <g id="XMLID_26867_" transform="translate(47 59.671)">
              <rect id="XMLID_26868_" width="1.117" height="4.72" transform="matrix(0.783, -0.622, 0.622, 0.783, 0, 0.694)" fill="#150035"/>
            </g>
            <g id="XMLID_26865_" transform="translate(45.651 61.294)">
              <rect id="XMLID_26866_" width="1.128" height="4.789" transform="matrix(0.821, -0.572, 0.572, 0.821, 0, 0.645)" fill="#150035"/>
            </g>
            <g id="XMLID_26863_" transform="translate(44.09 62.664)">
              <rect id="XMLID_26864_" width="1.128" height="4.812" transform="translate(0 0.588) rotate(-31.385)" fill="#150035"/>
            </g>
            <g id="XMLID_26861_" transform="translate(42.325 63.652)">
              <rect id="XMLID_26862_" width="1.117" height="4.812" transform="translate(0 0.523) rotate(-27.918)" fill="#150035"/>
            </g>
            <g id="XMLID_26859_" transform="translate(40.431 64.391)">
              <rect id="XMLID_26860_" width="1.128" height="4.777" transform="translate(0 0.466) rotate(-24.417)" fill="#150035"/>
            </g>
            <g id="XMLID_26857_" transform="translate(38.34 64.789)">
              <rect id="XMLID_26858_" width="1.128" height="4.697" transform="translate(0 0.401) rotate(-20.836)" fill="#150035"/>
            </g>
            <g id="XMLID_26855_" transform="translate(36.146 64.856)">
              <rect id="XMLID_26856_" width="1.117" height="4.593" transform="translate(0 0.329) rotate(-17.121)" fill="#150035"/>
            </g>
            <g id="XMLID_26853_" transform="translate(33.846 64.59)">
              <rect id="XMLID_26854_" width="1.117" height="4.455" transform="translate(0 0.255) rotate(-13.197)" fill="#150035"/>
            </g>
            <g id="XMLID_26851_" transform="translate(31.48 63.985)">
              <rect id="XMLID_26852_" width="1.128" height="4.294" transform="translate(0 0.177) rotate(-9.009)" fill="#150035"/>
            </g>
            <g id="XMLID_26849_" transform="translate(29.044 63.087)">
              <rect id="XMLID_26850_" width="1.117" height="4.11" transform="translate(0 0.087) rotate(-4.462)" fill="#150035"/>
            </g>
            <g id="XMLID_26847_" transform="translate(26.556 58.065)">
              <rect id="XMLID_26848_" width="7.701" height="1.128" transform="matrix(0.004, -1, 1, 0.004, 0, 7.701)" fill="#150035"/>
            </g>
            <g id="XMLID_26845_" transform="translate(23.76 60.243)">
              <rect id="XMLID_26846_" width="3.707" height="1.117" transform="translate(0 3.686) rotate(-83.944)" fill="#150035"/>
            </g>
            <g id="XMLID_26843_" transform="translate(20.986 58.323)">
              <rect id="XMLID_26844_" width="3.488" height="1.117" transform="translate(0 3.408) rotate(-77.702)" fill="#150035"/>
            </g>
            <g id="XMLID_26841_" transform="translate(18.304 56.172)">
              <rect id="XMLID_26842_" width="3.281" height="1.117" transform="translate(0 3.096) rotate(-70.659)" fill="#150035"/>
            </g>
            <g id="XMLID_26839_" transform="translate(15.714 53.764)">
              <rect id="XMLID_26840_" width="3.097" height="1.117" transform="translate(0 2.754) rotate(-62.782)" fill="#150035"/>
            </g>
            <g id="XMLID_26837_" transform="translate(13.246 51.147)">
              <rect id="XMLID_26838_" width="2.947" height="1.117" transform="translate(0 2.384) rotate(-53.978)" fill="#150035"/>
            </g>
            <g id="XMLID_26835_" transform="translate(10.943 48.344)">
              <rect id="XMLID_26836_" width="2.843" height="1.128" transform="matrix(0.715, -0.699, 0.699, 0.715, 0, 1.988)" fill="#150035"/>
            </g>
            <g id="XMLID_26833_" transform="translate(8.847 45.386)">
              <rect id="XMLID_26834_" width="2.786" height="1.117" transform="translate(0 1.563) rotate(-34.13)" fill="#150035"/>
            </g>
            <g id="XMLID_26831_" transform="translate(6.943 42.329)">
              <rect id="XMLID_26832_" width="2.797" height="1.117" transform="translate(0 1.126) rotate(-23.74)" fill="#150035"/>
            </g>
            <g id="XMLID_26829_" transform="translate(5.276 39.232)">
              <rect id="XMLID_26830_" width="2.855" height="1.128" transform="matrix(0.972, -0.236, 0.236, 0.972, 0, 0.675)" fill="#150035"/>
            </g>
            <g id="XMLID_26827_" transform="translate(3.83 36.077)">
              <rect id="XMLID_26828_" width="2.981" height="1.117" transform="translate(0 0.215) rotate(-4.14)" fill="#150035"/>
            </g>
            <g id="XMLID_26825_" transform="translate(2.57 32.635)">
              <rect id="XMLID_26826_" width="1.128" height="3.143" transform="translate(0 1.125) rotate(-85.538)" fill="#150035"/>
            </g>
            <g id="XMLID_26823_" transform="translate(1.479 29.055)">
              <rect id="XMLID_26824_" width="1.128" height="3.327" transform="translate(0 1.103) rotate(-77.83)" fill="#150035"/>
            </g>
            <g id="XMLID_26821_" transform="translate(0.684 25.503)">
              <rect id="XMLID_26822_" width="1.128" height="3.534" transform="translate(0 1.067) rotate(-70.98)" fill="#150035"/>
            </g>
            <g id="XMLID_26819_" transform="translate(0.198 22.097)">
              <rect id="XMLID_26820_" width="1.117" height="3.741" transform="matrix(0.424, -0.905, 0.905, 0.424, 0, 1.011)" fill="#150035"/>
            </g>
            <g id="XMLID_26817_" transform="translate(0 18.776)">
              <rect id="XMLID_26818_" width="1.117" height="7.747" transform="matrix(0.504, -0.864, 0.864, 0.504, 0, 0.964)" fill="#150035"/>
            </g>
            <g id="XMLID_26815_" transform="translate(0.101 15.623)">
              <rect id="XMLID_26816_" width="1.128" height="4.156" transform="matrix(0.58, -0.815, 0.815, 0.58, 0, 0.919)" fill="#150035"/>
            </g>
            <g id="XMLID_26813_" transform="translate(0.515 12.723)">
              <rect id="XMLID_26814_" width="1.117" height="4.328" transform="translate(0 0.857) rotate(-50.112)" fill="#150035"/>
            </g>
            <g id="XMLID_26811_" transform="translate(1.214 10.033)">
              <rect id="XMLID_26812_" width="1.128" height="4.49" transform="matrix(0.695, -0.719, 0.719, 0.695, 0, 0.811)" fill="#150035"/>
            </g>
            <g id="XMLID_26809_" transform="translate(2.191 7.614)">
              <rect id="XMLID_26810_" width="1.128" height="4.616" transform="matrix(0.742, -0.671, 0.671, 0.742, 0, 0.757)" fill="#150035"/>
            </g>
            <g id="XMLID_26807_" transform="translate(3.453 5.508)">
              <rect id="XMLID_26808_" width="1.117" height="4.72" transform="matrix(0.783, -0.622, 0.622, 0.783, 0, 0.694)" fill="#150035"/>
            </g>
            <g id="XMLID_26805_" transform="translate(4.943 3.693)">
              <rect id="XMLID_26806_" width="1.117" height="4.789" transform="matrix(0.82, -0.572, 0.572, 0.82, 0, 0.638)" fill="#150035"/>
            </g>
            <g id="XMLID_26803_" transform="translate(6.718 2.236)">
              <rect id="XMLID_26804_" width="1.117" height="4.812" transform="translate(0 0.581) rotate(-31.373)" fill="#150035"/>
            </g>
            <g id="XMLID_26801_" transform="translate(8.696 1.113)">
              <rect id="XMLID_26802_" width="1.117" height="4.812" transform="matrix(0.884, -0.468, 0.468, 0.884, 0, 0.523)" fill="#150035"/>
            </g>
            <g id="XMLID_26799_" transform="translate(10.856 0.371)">
              <rect id="XMLID_26800_" width="1.117" height="4.777" transform="translate(0 0.462) rotate(-24.412)" fill="#150035"/>
            </g>
            <g id="XMLID_26797_" transform="translate(13.212 0)">
              <rect id="XMLID_26798_" width="1.117" height="4.697" transform="translate(0 0.397) rotate(-20.842)" fill="#150035"/>
            </g>
            <g id="XMLID_26795_" transform="translate(15.691 0.008)">
              <rect id="XMLID_26796_" width="1.117" height="4.593" transform="translate(0 0.329) rotate(-17.116)" fill="#150035"/>
            </g>
            <g id="XMLID_26793_" transform="translate(18.307 0.409)">
              <rect id="XMLID_26794_" width="1.117" height="4.455" transform="translate(0 0.255) rotate(-13.197)" fill="#150035"/>
            </g>
            <g id="XMLID_26791_" transform="translate(21.025 1.158)">
              <rect id="XMLID_26792_" width="1.128" height="4.294" transform="translate(0 0.177) rotate(-9.009)" fill="#150035"/>
            </g>
            <g id="XMLID_26789_" transform="translate(23.794 2.307)">
              <rect id="XMLID_26790_" width="1.117" height="4.11" transform="translate(0 0.087) rotate(-4.462)" fill="#150035"/>
            </g>
            <g id="XMLID_26787_" transform="translate(26.545 3.791)">
              <rect id="XMLID_26788_" width="7.701" height="1.128" transform="translate(0 7.701) rotate(-89.718)" fill="#150035"/>
            </g>
          </g>
          <g id="XMLID_26781_" transform="translate(48.185 58.756)">
            <path id="XMLID_26785_" d="M289.285,108.055c0,1.473-1.036,2.061-2.3,1.324a5.108,5.108,0,0,1-2.3-3.983c0-1.473,1.036-2.061,2.3-1.324A5.077,5.077,0,0,1,289.285,108.055Z" transform="translate(-283.955 -103.029)" fill="#fff"/>
            <path id="XMLID_26782_" d="M288.114,110.521a2.768,2.768,0,0,1-1.393-.414,5.811,5.811,0,0,1-2.671-4.616,2.116,2.116,0,0,1,3.4-1.957,5.811,5.811,0,0,1,2.671,4.616,2.335,2.335,0,0,1-1.036,2.118A1.9,1.9,0,0,1,288.114,110.521Zm-2.061-5.94a.454.454,0,0,0-.23.058,1,1,0,0,0-.311.863,4.341,4.341,0,0,0,1.934,3.35.957.957,0,0,0,.9.161,1,1,0,0,0,.311-.863,4.341,4.341,0,0,0-1.934-3.35A1.367,1.367,0,0,0,286.053,104.581Z" transform="translate(-284.05 -103.124)" fill="#150035"/>
          </g>
          <g id="XMLID_26779_" transform="translate(49.677 12.874)">
            <rect id="XMLID_26780_" width="6.4" height="1.462" transform="matrix(0.869, -0.494, 0.494, 0.869, 0, 3.164)" fill="#150035"/>
          </g>
          <g id="XMLID_26777_" transform="translate(75.853 39.617)">
            <rect id="XMLID_26778_" width="6.4" height="1.462" transform="matrix(0.869, -0.494, 0.494, 0.869, 0, 3.164)" fill="#150035"/>
          </g>
          <g id="XMLID_26775_" transform="translate(38.957 9.135)">
            <rect id="XMLID_26776_" width="6.4" height="1.462" transform="matrix(0.869, -0.494, 0.494, 0.869, 0, 3.164)" fill="#150035"/>
          </g>
        </g>
        <g id="XMLID_26772_" transform="translate(82.709 75.493)">
          <path id="XMLID_26773_" d="M314.662,148.195l-.622-1.324a21.059,21.059,0,0,0,8.553-7.218c3-4.5,6.251-12.5,4.6-25.049l1.451-.184c1.7,13-1.692,21.342-4.846,26.051A22.441,22.441,0,0,1,314.662,148.195Z" transform="translate(-314.04 -114.42)" fill="#150035"/>
        </g>
        <g id="XMLID_26770_" transform="translate(69.72 109.431)">
          <rect id="XMLID_26771_" width="10.971" height="1.462" transform="translate(0 4.647) rotate(-25.061)" fill="#150035"/>
        </g>
        <g id="XMLID_26768_" transform="translate(66.73 117.476)">
          <rect id="XMLID_26769_" width="1.462" height="25.406" fill="#150035"/>
        </g>
        <g id="XMLID_26766_" transform="translate(48.047 8.012)">
          <path id="XMLID_26767_" d="M326.811,100.143c-15.379-36.008-42.6-42.858-42.881-42.927l.334-1.416c.276.069,28.2,7.045,43.882,43.767Z" transform="translate(-283.93 -55.8)" fill="#150035"/>
        </g>
        <g id="XMLID_26764_" transform="translate(76.193 20.974)">
          <path id="XMLID_26765_" d="M313.4,73.46c-1.658-1.9-3.35-3.7-5.019-5.364l1.036-1.036c1.692,1.692,3.407,3.523,5.077,5.445Z" transform="translate(-308.38 -67.06)" fill="#150035"/>
        </g>
        <g id="XMLID_26762_" transform="translate(37.422 2.921)">
          <path id="XMLID_26763_" d="M311.134,68.21C290.482,49,275.264,53.291,275.126,53.326l-.426-1.393c.645-.2,16.1-4.628,37.436,15.207Z" transform="translate(-274.7 -51.378)" fill="#150035"/>
        </g>
        <g id="XMLID_26760_" transform="translate(60.917 3.315)">
          <path id="XMLID_26761_" d="M308.245,61.862a52.991,52.991,0,0,0-13.135-8.818l.622-1.324a54.443,54.443,0,0,1,13.492,9.048Z" transform="translate(-295.11 -51.72)" fill="#150035"/>
        </g>
        <g id="XMLID_26758_" transform="translate(51.409)">
          <path id="XMLID_26759_" d="M293.884,52.409a34.918,34.918,0,0,0-7.034-2.13l.219-1.439a35.843,35.843,0,0,1,7.356,2.222Z" transform="translate(-286.85 -48.84)" fill="#150035"/>
        </g>
      </g>
    </g>
  </g>
</svg>
